<?xml version="1.0" encoding="UTF-8" standalone="no"?>
<!-- Created with Inkscape (http://www.inkscape.org/) -->

<svg
   xmlns:dc="http://purl.org/dc/elements/1.1/"
   xmlns:cc="http://creativecommons.org/ns#"
   xmlns:rdf="http://www.w3.org/1999/02/22-rdf-syntax-ns#"
   xmlns:svg="http://www.w3.org/2000/svg"
   xmlns="http://www.w3.org/2000/svg"
   xmlns:sodipodi="http://sodipodi.sourceforge.net/DTD/sodipodi-0.dtd"
   xmlns:inkscape="http://www.inkscape.org/namespaces/inkscape"
   width="64"
   height="64"
   id="svg3825"
   version="1.1"
   inkscape:version="0.48.5 r10040"
   sodipodi:docname="ccSectionExtraction.svg">
  <defs
     id="defs3827" />
  <sodipodi:namedview
     id="base"
     pagecolor="#ffffff"
     bordercolor="#666666"
     borderopacity="1.0"
     inkscape:pageopacity="0.0"
     inkscape:pageshadow="2"
     inkscape:zoom="4.7179918"
     inkscape:cx="76.282241"
     inkscape:cy="33.696791"
     inkscape:document-units="px"
     inkscape:current-layer="layer1"
     showgrid="false"
     inkscape:window-width="1600"
     inkscape:window-height="1138"
     inkscape:window-x="-8"
     inkscape:window-y="-8"
     inkscape:window-maximized="1" />
  <metadata
     id="metadata3830">
    <rdf:RDF>
      <cc:Work
         rdf:about="">
        <dc:format>image/svg+xml</dc:format>
        <dc:type
           rdf:resource="http://purl.org/dc/dcmitype/StillImage" />
        <dc:title></dc:title>
      </cc:Work>
    </rdf:RDF>
  </metadata>
  <g
     inkscape:label="Calque 1"
     inkscape:groupmode="layer"
     id="layer1"
     transform="translate(0,-988.36218)">
    <path
       style="fill:none;stroke:#000000;stroke-width:3;stroke-linecap:butt;stroke-linejoin:miter;stroke-miterlimit:4;stroke-opacity:1;stroke-dasharray:6, 6;stroke-dashoffset:0"
       d="m 4.7227738,1003.2946 56.5321022,0.106"
       id="path3833"
       inkscape:connector-curvature="0" />
    <path
       sodipodi:type="arc"
       style="fill:#0090ff;fill-opacity:1;stroke:none"
       id="path4343"
       sodipodi:cx="5.563808"
       sodipodi:cy="23.781616"
       sodipodi:rx="1.0067843"
       sodipodi:ry="1.0067843"
       d="m 6.5705923,23.781616 a 1.0067843,1.0067843 0 1 1 -2.0135687,0 1.0067843,1.0067843 0 1 1 2.0135687,0 z"
       transform="matrix(1.9865228,0,0,1.9865228,-3.4358347,967.29912)" />
    <path
       sodipodi:type="arc"
       style="fill:#0090ff;fill-opacity:1;stroke:none"
       id="path4343-9"
       sodipodi:cx="5.563808"
       sodipodi:cy="23.781616"
       sodipodi:rx="1.0067843"
       sodipodi:ry="1.0067843"
       d="m 6.5705923,23.781616 a 1.0067843,1.0067843 0 1 1 -2.0135687,0 1.0067843,1.0067843 0 1 1 2.0135687,0 z"
       transform="matrix(1.9865228,0,0,1.9865228,-0.98478848,971.84258)" />
    <path
       sodipodi:type="arc"
       style="fill:#0090ff;fill-opacity:1;stroke:none"
       id="path4343-96"
       sodipodi:cx="5.563808"
       sodipodi:cy="23.781616"
       sodipodi:rx="1.0067843"
       sodipodi:ry="1.0067843"
       d="m 6.5705923,23.781616 a 1.0067843,1.0067843 0 1 1 -2.0135687,0 1.0067843,1.0067843 0 1 1 2.0135687,0 z"
       transform="matrix(1.9865228,0,0,1.9865228,2.1945303,975.9757)" />
    <path
       sodipodi:type="arc"
       style="fill:#0090ff;fill-opacity:1;stroke:none"
       id="path4343-8"
       sodipodi:cx="5.563808"
       sodipodi:cy="23.781616"
       sodipodi:rx="1.0067843"
       sodipodi:ry="1.0067843"
       d="m 6.5705923,23.781616 a 1.0067843,1.0067843 0 1 1 -2.0135687,0 1.0067843,1.0067843 0 1 1 2.0135687,0 z"
       transform="matrix(1.9865228,0,0,1.9865228,6.221667,979.15502)" />
    <path
       sodipodi:type="arc"
       style="fill:#0090ff;fill-opacity:1;stroke:none"
       id="path4343-3"
       sodipodi:cx="5.563808"
       sodipodi:cy="23.781616"
       sodipodi:rx="1.0067843"
       sodipodi:ry="1.0067843"
       d="m 6.5705923,23.781616 a 1.0067843,1.0067843 0 1 1 -2.0135687,0 1.0067843,1.0067843 0 1 1 2.0135687,0 z"
       transform="matrix(1.9865228,0,0,1.9865228,11.520532,980.32076)" />
    <path
       sodipodi:type="arc"
       style="fill:#0090ff;fill-opacity:1;stroke:none"
       id="path4343-4"
       sodipodi:cx="5.563808"
       sodipodi:cy="23.781616"
       sodipodi:rx="1.0067843"
       sodipodi:ry="1.0067843"
       d="m 6.5705923,23.781616 a 1.0067843,1.0067843 0 1 1 -2.0135687,0 1.0067843,1.0067843 0 1 1 2.0135687,0 z"
       transform="matrix(1.9865228,0,0,1.9865228,17.349284,982.44031)" />
    <path
       sodipodi:type="arc"
       style="fill:#0090ff;fill-opacity:1;stroke:none"
       id="path4343-84"
       sodipodi:cx="5.563808"
       sodipodi:cy="23.781616"
       sodipodi:rx="1.0067843"
       sodipodi:ry="1.0067843"
       d="m 6.5705923,23.781616 a 1.0067843,1.0067843 0 1 1 -2.0135687,0 1.0067843,1.0067843 0 1 1 2.0135687,0 z"
       transform="matrix(1.9865228,0,0,1.9865228,22.224239,986.46745)" />
    <path
       sodipodi:type="arc"
       style="fill:#0090ff;fill-opacity:1;stroke:none"
       id="path4343-99"
       sodipodi:cx="5.563808"
       sodipodi:cy="23.781616"
       sodipodi:rx="1.0067843"
       sodipodi:ry="1.0067843"
       d="m 6.5705923,23.781616 a 1.0067843,1.0067843 0 1 1 -2.0135687,0 1.0067843,1.0067843 0 1 1 2.0135687,0 z"
       transform="matrix(1.9865228,0,0,1.9865228,26.88724,990.70654)" />
    <path
       sodipodi:type="arc"
       style="fill:#0090ff;fill-opacity:1;stroke:none"
       id="path4343-2"
       sodipodi:cx="5.563808"
       sodipodi:cy="23.781616"
       sodipodi:rx="1.0067843"
       sodipodi:ry="1.0067843"
       d="m 6.5705923,23.781616 a 1.0067843,1.0067843 0 1 1 -2.0135687,0 1.0067843,1.0067843 0 1 1 2.0135687,0 z"
       transform="matrix(1.9865228,0,0,1.9865228,32.186104,988.16309)" />
    <path
       sodipodi:type="arc"
       style="fill:#0090ff;fill-opacity:1;stroke:none"
       id="path4343-5"
       sodipodi:cx="5.563808"
       sodipodi:cy="23.781616"
       sodipodi:rx="1.0067843"
       sodipodi:ry="1.0067843"
       d="m 6.5705923,23.781616 a 1.0067843,1.0067843 0 1 1 -2.0135687,0 1.0067843,1.0067843 0 1 1 2.0135687,0 z"
       transform="matrix(1.9865228,0,0,1.9865228,36.955083,983.71204)" />
    <path
       sodipodi:type="arc"
       style="fill:#0090ff;fill-opacity:1;stroke:none"
       id="path4343-53"
       sodipodi:cx="5.563808"
       sodipodi:cy="23.781616"
       sodipodi:rx="1.0067843"
       sodipodi:ry="1.0067843"
       d="m 6.5705923,23.781616 a 1.0067843,1.0067843 0 1 1 -2.0135687,0 1.0067843,1.0067843 0 1 1 2.0135687,0 z"
       transform="matrix(1.9865228,0,0,1.9865228,40.240379,979.15502)" />
    <path
       sodipodi:type="arc"
       style="fill:#0090ff;fill-opacity:1;stroke:none"
       id="path4343-33"
       sodipodi:cx="5.563808"
       sodipodi:cy="23.781616"
       sodipodi:rx="1.0067843"
       sodipodi:ry="1.0067843"
       d="m 6.5705923,23.781616 a 1.0067843,1.0067843 0 1 1 -2.0135687,0 1.0067843,1.0067843 0 1 1 2.0135687,0 z"
       transform="matrix(1.9865228,0,0,1.9865228,43.207743,973.43225)" />
    <path
       sodipodi:type="arc"
       style="fill:#0090ff;fill-opacity:1;stroke:none"
       id="path4343-7"
       sodipodi:cx="5.563808"
       sodipodi:cy="23.781616"
       sodipodi:rx="1.0067843"
       sodipodi:ry="1.0067843"
       d="m 6.5705923,23.781616 a 1.0067843,1.0067843 0 1 1 -2.0135687,0 1.0067843,1.0067843 0 1 1 2.0135687,0 z"
       transform="matrix(1.9865228,0,0,1.9865228,45.327289,967.49751)" />
    <path
       sodipodi:type="arc"
       style="fill:#0090ff;fill-opacity:1;stroke:none"
       id="path4343-43"
       sodipodi:cx="5.563808"
       sodipodi:cy="23.781616"
       sodipodi:rx="1.0067843"
       sodipodi:ry="1.0067843"
       d="m 6.5705923,23.781616 a 1.0067843,1.0067843 0 1 1 -2.0135687,0 1.0067843,1.0067843 0 1 1 2.0135687,0 z"
       transform="matrix(1.9865228,0,0,1.9865228,47.446835,962.09267)" />
    <path
       sodipodi:type="arc"
       style="fill:#0090ff;fill-opacity:1;stroke:none"
       id="path4343-80"
       sodipodi:cx="5.563808"
       sodipodi:cy="23.781616"
       sodipodi:rx="1.0067843"
       sodipodi:ry="1.0067843"
       d="m 6.5705923,23.781616 a 1.0067843,1.0067843 0 1 1 -2.0135687,0 1.0067843,1.0067843 0 1 1 2.0135687,0 z"
       transform="matrix(1.9865228,0,0,1.9865228,-4.6939937,962.19864)" />
  </g>
</svg>
