<svg xmlns="http://www.w3.org/2000/svg" xmlns:xlink="http://www.w3.org/1999/xlink" viewBox="0 0 128 128">
  <pattern id="a" x="4" y="4" width="12" height="12" patternUnits="userSpaceOnUse">
    <circle cx="6" cy="6" r="5" fill="#DCDCDC"/>
  </pattern>
  <path fill="#fff" opacity=".5" d="M0 0h128v128H0Z"/>
  <path fill="url(#a)" d="M4 4h120 v120 H4Z"/>
  <g transform="translate(0 -14)">
	<path id="b" fill="#005c94" d="M74 49q-5-16-22-16-30 0-30 34c0 23 16 30 29 30q18 0 24-22h11q-6 31-37 31c-20 0-38-11-39-40q2-42 42-42 27 0 33 25z"/>
	<use xlink:href="#b" transform="translate(30)"/>
  </g>
  <path d="m16 99h-5l7.2 19h3.7l7.2-19h-4.5A781 781 0 0020 111zm20 19V99h-4.6v19zm0-21v-5h-4.6v5zm12.3 5.1c2.3 0 3.7 1.5 4.1 3.7h-8.4c.2-2.1 2.2-3.7 4.3-3.7zm.2 12.2c-2.6.1-4.5-2.2-4.6-4.7h13.1c1.2-14.6-17.7-15.3-17.6-1.3-.7 11.3 15.3 13.6 17.6 2.7l-4.5 0c-.7 1.8-1.6 3.2-4 3.3zM69 118l3-11.4 3 11.5h4.1l4.9-19.1H80l-2.8 11.9-3-11.9H70.1l-3.2 12-2.9-12h-4l4.9 19zm26.6-15.6c2.3 0 3.7 1.5 4.1 3.7h-8.4c.2-2.1 2.3-3.7 4.3-3.7zm.2 12.2c-2.6.1-4.5-2.2-4.6-4.7h13.1c1.2-14.6-17.6-15.3-17.6-1.3-.7 11.3 15.3 13.6 17.3 2.4l-4.1-.1c-.7 2.2-1.7 3.6-4.1 3.7zm17.2 3.4v-10q0-7 6-5l0-4c-2-.3-4.9-1.3-6.8 1.2v-1.2h-4v19z"/>
</svg>
